<svg xmlns="http://www.w3.org/2000/svg" xmlns:xlink="http://www.w3.org/1999/xlink" width="2000" zoomAndPan="magnify" viewBox="0 0 1500 1499.999933" height="2000" preserveAspectRatio="xMidYMid meet" version="1.0"><defs><clipPath id="44fe6f95fb"><path d="M 436.933594 12 L 797.082031 12 L 797.082031 914 L 436.933594 914 Z M 436.933594 12 " clip-rule="nonzero"/></clipPath><clipPath id="ac7a36f5bb"><path d="M 436.933594 263.609375 L 436.933594 865.9375 C 436.933594 883.023438 445.996094 898.804688 460.742188 907.421875 C 475.488281 916.023438 493.695312 916.171875 508.574219 907.785156 L 725.445312 785.433594 C 769.714844 760.472656 797.082031 713.597656 797.082031 662.789062 L 797.082031 60.460938 C 797.082031 43.390625 788.019531 27.589844 773.273438 18.988281 C 758.53125 10.371094 740.324219 10.242188 725.445312 18.628906 L 508.574219 140.960938 C 464.300781 165.921875 436.933594 212.796875 436.933594 263.609375 Z M 436.933594 263.609375 " clip-rule="nonzero"/></clipPath><clipPath id="bca61c90e1"><path d="M 436.933594 263.609375 L 436.933594 865.9375 C 436.933594 883.023438 445.996094 898.804688 460.742188 907.421875 C 475.488281 916.023438 493.695312 916.171875 508.574219 907.785156 L 725.445312 785.433594 C 769.714844 760.472656 797.082031 713.597656 797.082031 662.789062 L 797.082031 60.460938 C 797.082031 43.390625 788.019531 27.589844 773.273438 18.988281 C 758.53125 10.371094 740.324219 10.242188 725.445312 18.628906 L 508.574219 140.960938 C 464.300781 165.921875 436.933594 212.796875 436.933594 263.609375 Z M 436.933594 263.609375 " clip-rule="nonzero"/></clipPath><clipPath id="84dba255b2"><path d="M 617 338.328125 L 1043.875 338.328125 L 1043.875 1470.867188 L 617 1470.867188 Z M 617 338.328125 " clip-rule="nonzero"/></clipPath><clipPath id="2745c43580"><path d="M 617 1458.542969 L 617 401.59375 C 617 384.804688 623.65625 368.726562 635.535156 356.863281 C 647.398438 344.984375 663.480469 338.328125 680.269531 338.328125 L 999.785156 338.328125 C 1014.152344 338.328125 1027.597656 345.378906 1035.769531 357.191406 C 1043.941406 369.003906 1045.804688 384.082031 1040.730469 397.523438 L 639.308594 1462.613281 C 637.347656 1467.820312 631.945312 1470.882812 626.457031 1469.894531 C 620.988281 1468.890625 617 1464.113281 617 1458.542969 Z M 617 1458.542969 " clip-rule="nonzero"/></clipPath><clipPath id="5615f08348"><path d="M 617 1458.542969 L 617 401.59375 C 617 384.804688 623.65625 368.726562 635.535156 356.863281 C 647.398438 344.984375 663.480469 338.328125 680.269531 338.328125 L 999.785156 338.328125 C 1014.152344 338.328125 1027.597656 345.378906 1035.769531 357.191406 C 1043.941406 369.003906 1045.804688 384.082031 1040.730469 397.523438 L 639.308594 1462.613281 C 637.347656 1467.820312 631.945312 1470.882812 626.457031 1469.894531 C 620.988281 1468.890625 617 1464.113281 617 1458.542969 Z M 617 1458.542969 " clip-rule="nonzero"/></clipPath></defs><g clip-path="url(#44fe6f95fb)"><g clip-path="url(#ac7a36f5bb)"><g clip-path="url(#bca61c90e1)"><path fill="#5170ff" d="M 436.933594 948.183594 L 436.933594 -21.144531 L 797.082031 -21.144531 L 797.082031 948.183594 Z M 436.933594 948.183594 " fill-opacity="1" fill-rule="nonzero"/></g></g></g><g clip-path="url(#84dba255b2)"><g clip-path="url(#2745c43580)"><g clip-path="url(#5615f08348)"><path fill="#5170ff" d="M 617 1521.398438 L 617 338.328125 L 1063.054688 338.328125 L 1063.054688 1521.398438 Z M 617 1521.398438 " fill-opacity="1" fill-rule="nonzero"/></g></g></g></svg>